<svg xmlns="http://www.w3.org/2000/svg" width="39.791" height="70.108" viewBox="0 0 39.791 70.108"><defs><style>.a{fill:#3ee5c9;}</style></defs><g transform="translate(0)"><path class="a" d="M105.759,384H98.748a.947.947,0,1,0,0,1.895h7.011a.947.947,0,1,0,0-1.895Zm0,0" transform="translate(-82.358 -323.366)"/><path class="a" d="M8.527,0A8.537,8.537,0,0,0,0,8.527V61.581a8.537,8.537,0,0,0,8.527,8.527H31.264a8.537,8.537,0,0,0,8.527-8.527V8.527A8.537,8.537,0,0,0,31.264,0ZM1.895,10.8h36V53.054h-36ZM31.264,68.213H8.527a6.64,6.64,0,0,1-6.632-6.632V54.949h36v6.632A6.64,6.64,0,0,1,31.264,68.213ZM37.9,8.527v.379h-36V8.527A6.64,6.64,0,0,1,8.527,1.895H31.264A6.64,6.64,0,0,1,37.9,8.527Zm0,0"/><g transform="translate(5.116 14.328)"><path class="a" d="M33.346,247.895H45.094a.947.947,0,1,0,0-1.895H33.346a.947.947,0,0,0,0,1.895Zm0,0" transform="translate(-32.398 -221.484)"/><path class="a" d="M132.231,247.895a.947.947,0,0,0,0-1.895h-6.885a.947.947,0,0,0,0,1.895Zm0,0" transform="translate(-109.872 -221.484)"/><path class="a" d="M193.559,246h-2.811a.947.947,0,1,0,0,1.895h2.811a.947.947,0,0,0,0-1.895Zm0,0" transform="translate(-164.947 -221.484)"/><path class="a" d="M33.346,283.895H35.62a.947.947,0,0,0,0-1.895H33.346a.947.947,0,0,0,0,1.895Zm0,0" transform="translate(-32.398 -251.8)"/><path class="a" d="M75.283,282H69.346a.947.947,0,0,0,0,1.895h5.937a.947.947,0,0,0,0-1.895Zm0,0" transform="translate(-62.714 -251.8)"/><path class="a" d="M128.748,283.895h12.6a.947.947,0,1,0,0-1.895h-12.6a.947.947,0,1,0,0,1.895Zm0,0" transform="translate(-112.737 -251.8)"/><path class="a" d="M50.948,100.68h2.29v9.651a.948.948,0,0,0,.947.947H69.817a.948.948,0,0,0,.947-.947V100.68h2.29a.947.947,0,0,0,.558-1.713L62.559,90.92a.948.948,0,0,0-1.115,0L50.391,98.967a.947.947,0,0,0,.558,1.713ZM62,92.858l8.142,5.927h-.326a.948.948,0,0,0-.947.947v9.651H55.133V99.732a.948.948,0,0,0-.947-.947h-.326Zm0,0" transform="translate(-47.222 -90.738)"/><path class="a" d="M109.9,129.589a3.019,3.019,0,1,0-3.019-3.019A3.019,3.019,0,0,0,109.9,129.589Zm0-4.143a1.124,1.124,0,1,1-1.124,1.124A1.124,1.124,0,0,1,109.9,125.446Zm0,0" transform="translate(-95.118 -118.37)"/></g></g></svg>