<svg xmlns="http://www.w3.org/2000/svg" width="70.106" height="66.574" viewBox="0 0 70.106 66.574"><defs><style>.a{fill:#3ee5c9;}</style></defs><g transform="translate(1655.594 272.862)"><path class="a" d="M-1646.561-226.961h5.6a1.622,1.622,0,0,0,1.621-1.621v-5.6a1.622,1.622,0,0,0-1.621-1.621h-5.6a1.623,1.623,0,0,0-1.621,1.621v5.6A1.623,1.623,0,0,0-1646.561-226.961Zm.442-6.779h4.716v4.716h-4.716Z" transform="translate(-2.99 -14.952)"/><path class="a" d="M-1629.406-234.182v5.6a1.623,1.623,0,0,0,1.621,1.621h5.6a1.623,1.623,0,0,0,1.621-1.621v-5.6a1.623,1.623,0,0,0-1.621-1.621h-5.6A1.623,1.623,0,0,0-1629.406-234.182Zm2.063.442h4.716v4.716h-4.716Z" transform="translate(-10.566 -14.952)"/><path class="a" d="M-1608.761-226.961h5.6a1.622,1.622,0,0,0,1.621-1.621v-5.6a1.623,1.623,0,0,0-1.621-1.621h-5.6a1.623,1.623,0,0,0-1.621,1.621v5.6A1.622,1.622,0,0,0-1608.761-226.961Zm.443-6.779h4.716v4.716h-4.716Z" transform="translate(-18.242 -14.952)"/><path class="a" d="M-1589.985-226.961h5.6a1.623,1.623,0,0,0,1.621-1.621v-5.6a1.623,1.623,0,0,0-1.621-1.621h-5.6a1.623,1.623,0,0,0-1.621,1.621v5.6A1.623,1.623,0,0,0-1589.985-226.961Zm.442-6.779h4.716v4.716h-4.716Z" transform="translate(-25.818 -14.952)"/><path class="a" d="M-1572.582-234.182v5.6a1.622,1.622,0,0,0,1.621,1.621h5.6a1.622,1.622,0,0,0,1.621-1.621v-5.6a1.623,1.623,0,0,0-1.621-1.621h-5.6A1.622,1.622,0,0,0-1572.582-234.182Zm2.063.442h4.716v4.716h-4.716Z" transform="translate(-33.493 -14.952)"/><path class="a" d="M-1646.314-205.961h5.6a1.623,1.623,0,0,0,1.621-1.621v-5.6a1.623,1.623,0,0,0-1.621-1.621h-5.6a1.623,1.623,0,0,0-1.621,1.621v5.6A1.622,1.622,0,0,0-1646.314-205.961Zm.442-6.779h4.716v4.716h-4.716Z" transform="translate(-3.09 -23.425)"/><path class="a" d="M-1621.937-214.8h-5.6a1.623,1.623,0,0,0-1.621,1.621v5.6a1.623,1.623,0,0,0,1.621,1.621h5.6a1.623,1.623,0,0,0,1.621-1.621v-5.6A1.623,1.623,0,0,0-1621.937-214.8Zm-.442,6.779h-4.716v-4.716h4.716Z" transform="translate(-10.666 -23.425)"/><path class="a" d="M-1602.914-214.8h-5.6a1.623,1.623,0,0,0-1.621,1.621v5.6a1.622,1.622,0,0,0,1.621,1.621h5.6a1.622,1.622,0,0,0,1.621-1.621v-5.6A1.622,1.622,0,0,0-1602.914-214.8Zm-.442,6.779h-4.716v-4.716h4.716Z" transform="translate(-18.342 -23.425)"/><path class="a" d="M-1647.935-187.917a1.623,1.623,0,0,0,1.621,1.621h5.6a1.624,1.624,0,0,0,1.621-1.621v-5.748a1.624,1.624,0,0,0-1.621-1.621h-5.6a1.624,1.624,0,0,0-1.621,1.621Zm2.063-5.306h4.716v4.863h-4.716Z" transform="translate(-3.09 -31.3)"/><path class="a" d="M-1621.937-186.3a1.624,1.624,0,0,0,1.621-1.621v-5.748a1.624,1.624,0,0,0-1.621-1.621h-5.6a1.624,1.624,0,0,0-1.621,1.621v5.748a1.624,1.624,0,0,0,1.621,1.621Zm-5.158-6.927h4.716v4.863h-4.716Z" transform="translate(-10.666 -31.3)"/><path class="a" d="M-1583.548-210.382a1.032,1.032,0,0,0,1.032-1.031v-1.769a1.623,1.623,0,0,0-1.621-1.621h-5.6a1.623,1.623,0,0,0-1.622,1.621v5.6a1.623,1.623,0,0,0,1.622,1.621h1.621a1.031,1.031,0,0,0,1.032-1.031,1.032,1.032,0,0,0-1.032-1.032h-1.179v-4.716h4.716v1.326A1.031,1.031,0,0,0-1583.548-210.382Z" transform="translate(-25.917 -23.425)"/><path class="a" d="M-1577.588-190.866a1.021,1.021,0,0,0,.54-.154l7.139-4.4a1.032,1.032,0,0,0,.491-.879v-11.3a1.032,1.032,0,0,0-1.032-1.032,1.031,1.031,0,0,0-1.031,1.032v10.724l-6.648,4.095a1.032,1.032,0,0,0-.338,1.419A1.031,1.031,0,0,0-1577.588-190.866Z" transform="translate(-31.057 -24.917)"/><path class="a" d="M-1638.089-259.6h.619a3.672,3.672,0,0,0,3.669-3.669v-5.925a3.673,3.673,0,0,0-3.669-3.67h-.619a3.674,3.674,0,0,0-3.67,3.67v5.925A3.673,3.673,0,0,0-1638.089-259.6Zm-1.606-9.594a1.608,1.608,0,0,1,1.606-1.606h.619a1.609,1.609,0,0,1,1.606,1.606v5.925a1.609,1.609,0,0,1-1.606,1.606h-.619a1.608,1.608,0,0,1-1.606-1.606Z" transform="translate(-5.582)"/><path class="a" d="M-1573.854-259.6h.619a3.672,3.672,0,0,0,3.669-3.669v-5.925a3.673,3.673,0,0,0-3.669-3.67h-.619a3.674,3.674,0,0,0-3.67,3.67v5.925A3.674,3.674,0,0,0-1573.854-259.6Zm-1.606-9.594a1.608,1.608,0,0,1,1.606-1.606h.619a1.609,1.609,0,0,1,1.606,1.606v5.925a1.609,1.609,0,0,1-1.606,1.606h-.619a1.609,1.609,0,0,1-1.606-1.606Z" transform="translate(-31.499)"/><path class="a" d="M-1630.6-259.681h32.276a1.032,1.032,0,0,0,1.031-1.032,1.031,1.031,0,0,0-1.031-1.031H-1630.6a1.031,1.031,0,0,0-1.031,1.031A1.032,1.032,0,0,0-1630.6-259.681Z" transform="translate(-9.669 -4.486)"/><path class="a" d="M-1592.812-231.123v-24.351a6.124,6.124,0,0,0-6.107-6.27h-3.178a1.031,1.031,0,0,0-1.031,1.031,1.032,1.032,0,0,0,1.031,1.032h3.178a4.084,4.084,0,0,1,4.044,4.207v4.194h-58.656v-4.194a4.471,4.471,0,0,1,4.493-4.207h2.729a1.032,1.032,0,0,0,1.031-1.032,1.031,1.031,0,0,0-1.031-1.031h-2.729a6.5,6.5,0,0,0-6.556,6.27v40.887a6.538,6.538,0,0,0,6.556,6.34h34.836a15.92,15.92,0,0,0,22.269,3.315,15.92,15.92,0,0,0,3.316-22.269A15.93,15.93,0,0,0-1592.812-231.123Zm-56.226,20.813a4.5,4.5,0,0,1-4.493-4.277v-34.63h58.656v16.971a15.921,15.921,0,0,0-21.057,7.971,15.922,15.922,0,0,0,.43,13.965Zm47.624,6.445a13.862,13.862,0,0,1-13.862-13.862,13.862,13.862,0,0,1,13.862-13.861,13.862,13.862,0,0,1,13.862,13.861h0A13.878,13.878,0,0,1-1601.414-203.864Z" transform="translate(0 -4.486)"/></g></svg>