<svg xmlns="http://www.w3.org/2000/svg" width="65.686" height="65.686" viewBox="0 0 65.686 65.686"><defs><style>.a{fill:#3ee5c9;}</style></defs><path class="a" d="M-116.716-1812.315A3.285,3.285,0,0,1-120-1815.6v-19.706a3.284,3.284,0,0,1,3.284-3.284h16.421v-5.474a5.48,5.48,0,0,1,5.474-5.474h2.19V-1878h28.463v28.463h2.19a5.481,5.481,0,0,1,5.474,5.474v6.568h2.19v10.948H-56.5v8.758a5.481,5.481,0,0,1-5.474,5.474Zm54.738-2.19a3.285,3.285,0,0,0,3.284-3.284v-8.758h-5.474a5.474,5.474,0,0,1-5.474-5.474h0a5.474,5.474,0,0,1,5.474-5.474h5.474v-6.568a3.285,3.285,0,0,0-3.284-3.284h-2.19v2.19h2.19v2.19H-94.82v-2.19h2.19v-2.19h-2.19a3.285,3.285,0,0,0-3.284,3.284v5.474h14.232a3.284,3.284,0,0,1,3.284,3.284v19.706a3.229,3.229,0,0,1-.2,1.1Zm-54.738,0h32.843a1.1,1.1,0,0,0,1.094-1.1v-1.094H-117.81v1.094A1.1,1.1,0,0,0-116.716-1814.5Zm33.937-4.379v-2.19H-117.81v2.19Zm0-4.379v-12.043a1.094,1.094,0,0,0-1.094-1.094h-32.843a1.094,1.094,0,0,0-1.094,1.094v12.043Zm18.611-5.474H-56.5v-6.569h-7.664a3.285,3.285,0,0,0-3.284,3.285A3.285,3.285,0,0,0-64.167-1828.736Zm-2.19-16.422v-30.653H-90.441v30.653h1.094v-25.248l.735-.255a5.425,5.425,0,0,0,3.321-3.321l.255-.735h13.273l.26.735a5.424,5.424,0,0,0,3.316,3.321l.735.255h0v25.247Zm-3.284,0v-23.735a7.661,7.661,0,0,1-3.634-3.634H-83.523a7.661,7.661,0,0,1-3.634,3.634v23.735h7.663v-2.19h2.19v2.19Zm3.284,13.136a2.189,2.189,0,0,1,2.19-2.189,2.19,2.19,0,0,1,2.19,2.189,2.19,2.19,0,0,1-2.19,2.19A2.189,2.189,0,0,1-66.357-1832.021Zm-53.4-18.67a9.844,9.844,0,0,1,5.466-11.051,9.932,9.932,0,0,1,6.882-11.676,9.932,9.932,0,0,1,12.121,6.064,9.931,9.931,0,0,1-5.217,12.508,9.856,9.856,0,0,1-1.993,8.234,9.855,9.855,0,0,1-7.649,3.643A9.845,9.845,0,0,1-119.758-1850.691Zm1.948-2.13a7.663,7.663,0,0,0,7.663,7.663,7.663,7.663,0,0,0,7.663-7.663,7.663,7.663,0,0,0-7.663-7.663A7.672,7.672,0,0,0-117.81-1852.821Zm16.221-9.9a3.273,3.273,0,0,1-.962,3.63,9.861,9.861,0,0,1,1.342,2.147,7.661,7.661,0,0,0,3.827-9.2,7.663,7.663,0,0,0-8.49-5.209,7.663,7.663,0,0,0-6.464,7.579,7.748,7.748,0,0,0,.12,1.314,9.776,9.776,0,0,1,8.066,1.833,1.093,1.093,0,0,0,.53-1.228,1.093,1.093,0,0,0-1.053-.824,3.277,3.277,0,0,1-3.236-2.722,3.278,3.278,0,0,1,2.141-3.646v-1.3h2.19v1.3a3.286,3.286,0,0,1,2.19,3.083h-2.19a1.1,1.1,0,0,0-1.1-1.1,1.1,1.1,0,0,0-1.094,1.1,1.1,1.1,0,0,0,1.094,1.094h.013A3.272,3.272,0,0,1-101.589-1862.719Zm-9.653,16.467v-1.3a3.285,3.285,0,0,1-2.19-3.083h2.19a1.094,1.094,0,0,0,1.094,1.094,1.1,1.1,0,0,0,1.1-1.094,1.1,1.1,0,0,0-1.1-1.094,3.278,3.278,0,0,1-3.236-2.722,3.278,3.278,0,0,1,2.141-3.646v-1.3h2.19v1.3a3.286,3.286,0,0,1,2.19,3.083h-2.19a1.1,1.1,0,0,0-1.1-1.094,1.1,1.1,0,0,0-1.094,1.094,1.1,1.1,0,0,0,1.094,1.1,3.277,3.277,0,0,1,3.236,2.722,3.278,3.278,0,0,1-2.141,3.645v1.3Zm26.275-9.853a6.568,6.568,0,0,1,6.568-6.569,6.569,6.569,0,0,1,6.568,6.569,6.575,6.575,0,0,1-6.568,6.568A6.568,6.568,0,0,1-84.967-1856.105Zm2.189,0a4.379,4.379,0,0,0,4.379,4.378,4.378,4.378,0,0,0,4.379-4.378,4.379,4.379,0,0,0-4.379-4.379A4.38,4.38,0,0,0-82.778-1856.105Zm3.284-8.758v-4.379h2.19v4.379Z" transform="translate(120 1878)"/></svg>