<svg xmlns="http://www.w3.org/2000/svg" width="64.756" height="68.75" viewBox="0 0 64.756 68.75"><defs><style>.a{fill:#3ee5c9;}</style></defs><g transform="translate(-0.27)"><g transform="translate(12.783 0)"><path class="a" d="M178.591,164.732l-6.192,5.038-2.321-2.718a1.095,1.095,0,1,0-1.666,1.422l3.015,3.531a1.094,1.094,0,0,0,1.523.138l7.022-5.713a1.095,1.095,0,1,0-1.382-1.7Zm0,0" transform="translate(-154.4 -138.755)"/><path class="a" d="M142.313,112.769a11.979,11.979,0,1,0,8.536,3.508A12.044,12.044,0,0,0,142.313,112.769Zm0,21.9a9.854,9.854,0,1,1,9.854-9.854A9.854,9.854,0,0,1,142.313,134.667Zm0,0" transform="translate(-122.449 -95.13)"/><path class="a" d="M106.3.347,106.289.34A1.087,1.087,0,0,0,105.5,0a1.046,1.046,0,0,0-.123.008l-.019,0c-.037,0-.073,0-.109,0H86.324A6.063,6.063,0,0,0,80.27,6.055V35.721l2.19,1.855V6.055A3.87,3.87,0,0,1,86.324,2.19H104.4V9.541a6.061,6.061,0,0,0,6.055,6.055h7.351V37.569L120,35.713V14.473a1.094,1.094,0,0,0-.322-.775Zm4.159,13.059a3.869,3.869,0,0,1-3.865-3.865V3.734l9.692,9.673Zm0,0" transform="translate(-80.27 0)"/></g><path class="a" d="M64.458,114.715,52.512,104.6v2.869l9.725,8.235-9.725,8.248-2.19,1.857L36,137.961a5.146,5.146,0,0,1-6.675,0L14.973,125.816l-2.19-1.855-9.724-8.234,9.724-8.248v-2.874L.9,114.684a1.1,1.1,0,0,0-.632.992v33.964a7.359,7.359,0,0,0,7.351,7.352H57.674a7.359,7.359,0,0,0,7.351-7.352V115.675A1.094,1.094,0,0,0,64.458,114.715Zm-1.622,34.924a5.13,5.13,0,0,1-.613,2.438L47.3,136.9a1.1,1.1,0,1,0-1.562,1.536l15.052,15.313a5.128,5.128,0,0,1-3.119,1.053H7.621A5.131,5.131,0,0,1,4.5,153.744l14.969-15.312A1.095,1.095,0,0,0,17.9,136.9L3.07,152.07a5.111,5.111,0,0,1-.61-2.431V118.089l10.722,9.079L27.9,139.635a7.327,7.327,0,0,0,9.505,0l14.7-12.471,10.722-9.092Zm0,0" transform="translate(0 -88.24)"/></g></svg>