<svg xmlns="http://www.w3.org/2000/svg" width="526.324" height="398.454" viewBox="0 0 526.324 398.454"><defs><style>.a,.g,.k,.q{fill:none;}.a{stroke:#fe6730;}.b{fill:#fe6730;}.c{fill:#f2f2f2;}.d{fill:#0068ff;}.e{fill:#2f2e41;}.f{fill:#3f3d56;}.g{stroke:#2fa58e;}.g,.k{stroke-miterlimit:10;}.h,.s{fill:#2fa58e;}.i{fill:#3ee5c9;}.j{opacity:0.18;}.l{fill:rgba(0,0,0,0.36);}.m{fill:#ffb9b9;}.n{fill:#d0cde1;}.o{opacity:0.1;}.p{fill:#575a89;}.q{stroke:#3ee5c9;}.r,.s{stroke:none;}</style></defs><g transform="translate(0 35.428)"><ellipse class="a" cx="25.876" cy="25.876" rx="25.876" ry="25.876" transform="translate(100.642 14.874)"/><ellipse class="b" cx="25.876" cy="25.876" rx="25.876" ry="25.876" transform="translate(95.901 10.811)"/><path class="c" d="M843.3,48.4c-22.047.1-39.992.427-39.992.427s21.331-28.255,39.912-17.786S883.15,48.458,883.15,48.458,865.35,48.3,843.3,48.4Z" transform="translate(-395.702 -15.034)"/><path class="c" d="M-12.279,263.577c-22.047.1-39.992.427-39.992.427s21.33-28.255,39.912-17.787,39.927,17.419,39.927,17.419S9.768,263.475-12.279,263.577Z" transform="translate(52.271 -127.698)"/><path class="c" d="M84.811,27.29c-22.047.1-39.992.427-39.992.427S66.15-.537,84.731,9.931s39.927,17.419,39.927,17.419S106.858,27.188,84.811,27.29Z" transform="translate(1.436 -3.982)"/><rect class="d" width="40.971" height="26.203" transform="translate(323.806 140.541)"/><rect class="d" width="40.971" height="26.203" transform="translate(259.967 181.513)"/><rect class="d" width="40.971" height="26.203" transform="translate(197.75 95.759)"/><rect class="d" width="40.971" height="26.203" transform="translate(130.814 207.001)"/><rect class="d" width="40.971" height="26.203" transform="translate(322.57 53.358)"/><path class="c" d="M491.488,149.117V93.377H460.521V57.169H439.559V93.377H408.592v55.74H391.442V23.821H356.664V11.91H310.452V0H264.716V11.91H221.363v11.91H183.726V148.64H163.717V92.9H132.75V56.693H111.788V92.9H80.821v55.74H60.812V346.351h45.736V276.319h31.443v70.033H260.9V264.885h53.358v81.466h74.32v.476h45.735V276.8h31.443v70.033H511.5V149.117ZM77.248,172.937h18.1V187.23h-18.1Zm.238,40.019h18.1v14.292h-18.1Zm18.342,54.311h-18.1V252.975h18.1Zm47.4-129.108H101.307v-8.575h41.924Zm0-12.387H101.307V117.2h41.924Zm0-12.387H101.307v-8.575h41.924Zm5.955,59.551h18.1V187.23h-18.1Zm.238,40.019h18.1v14.292h-18.1Zm18.342,54.311h-18.1V252.975h18.1Zm74.082-23.821H208.5V228.678h33.349Zm0-42.4H208.5V186.277h33.349Zm0-42.4H208.5V143.876h33.349Zm0-42.4H208.5V101.476h33.349Zm0-42.4H208.5V59.075h33.349Zm62.41,169.6H270.91V228.678h33.349Zm0-42.4H270.91V186.277h33.349Zm0-42.4H270.91V143.876h33.349Zm0-42.4H270.91V101.476h33.349Zm0-42.4H270.91V59.075h33.349Zm62.41,169.6H333.319V228.678h33.349Zm0-42.4H333.319V186.277h33.349Zm0-42.4H333.319V143.876h33.349Zm0-42.4H333.319V101.476h33.349Zm0-42.4H333.319V59.075h33.349Zm38.351,99.57h18.1v14.292h-18.1Zm.238,40.019h18.1v14.292h-18.1ZM423.6,267.743H405.5V253.451h18.1ZM471,138.636H429.078V130.06H471Zm0-12.387H429.078v-8.575H471Zm0-12.387H429.078v-8.575H471Zm5.955,59.551h18.1v14.292h-18.1Zm.238,40.019h18.1v14.292H477.2Zm18.342,54.311h-18.1V253.451h18.1Z" transform="translate(-6.938)"/><g transform="translate(459.232 287.884)"><path class="b" d="M975.27,617.666c-.133,1.884-.342,3.992-.664,6.207l5.824-6.46.032.108a16.986,16.986,0,0,0-1.7-4.446l.037.1Z" transform="translate(-944.622 -608.883)"/><path class="b" d="M976.048,613.543l3.415-4.347a8.939,8.939,0,0,0-3.055-3.255c-.063-.037-.126-.073-.189-.107C976.239,606.348,976.328,609.361,976.048,613.543Z" transform="translate(-945.377 -605.092)"/><path class="b" d="M969.069,651.3q-.225.685-.465,1.346l8.578-5.03.012.126q.269-1.173.448-2.346l-8.565,5.96Z" transform="translate(-941.479 -625.804)"/><path class="b" d="M972.084,635.167l7.726-6.371.022.119a26.706,26.706,0,0,0-.662-6.263l-5.935,6.583Q972.766,632.347,972.084,635.167Z" transform="translate(-943.301 -613.897)"/><path class="b" d="M961.676,624.742l-9.244-10.314.049-.117a22.28,22.28,0,0,0-2.218,3.9l10.549,11.231C961.174,627.808,961.456,626.221,961.676,624.742Z" transform="translate(-931.877 -609.53)"/><path class="b" d="M950.054,622.866h0c.017-.038.031-.08.048-.118Z" transform="translate(-931.767 -613.947)"/><path class="b" d="M960.077,634.268,949.49,623q-.269.615-.515,1.265l10.821,11.2Q959.944,634.861,960.077,634.268Z" transform="translate(-931.202 -614.077)"/><path class="b" d="M948.923,625.651l-.048.118c.015-.04.032-.077.048-.118Z" transform="translate(-931.149 -615.467)"/><path class="b" d="M978.269,640.371a31.865,31.865,0,0,0,.343-4.281l-7.83,6.457q-.465,1.878-1.024,3.612l8.493-5.911Z" transform="translate(-942.084 -620.933)"/><path class="b" d="M945.9,642.366l8.57,11.181a38.37,38.37,0,0,0,1.862-4.2L945.88,638.365a30.826,30.826,0,0,0-.034,4.126Z" transform="translate(-929.536 -622.124)"/><path class="b" d="M969.729,605.008l.077-.034a6.048,6.048,0,0,0-5.856.121l5.613,7.624C969.865,608.195,969.731,605.054,969.729,605.008Z" transform="translate(-939.042 -604.276)"/><path class="b" d="M966.171,656.137a38.005,38.005,0,0,1-1.683,3.786l8.62-4.46.009.124a15.1,15.1,0,0,0,1.512-3.5q.2-.723.375-1.45l-8.68,5.09C966.273,655.866,966.223,656,966.171,656.137Z" transform="translate(-939.324 -628.551)"/><path class="b" d="M964.887,614.014l-5.741-7.8.054-.111a12.842,12.842,0,0,0-4.135,3.816l9.169,10.23C964.55,617.96,964.756,615.877,964.887,614.014Z" transform="translate(-934.39 -605.233)"/><path class="b" d="M956.556,642.7a51.7,51.7,0,0,0,1.632-5.322L947.34,626.153q-.388,1.052-.711,2.188a18.5,18.5,0,0,0-.6,3.32l10.516,11.046Z" transform="translate(-929.66 -615.73)"/><g transform="translate(0 17.66)"><path class="b" d="M986.6,684.876c-1.3,1.367-2.81,2.858-4.471,4.358l8.606-1.26-.044.1a16.976,16.976,0,0,0,1.523-4.51l-.036.1Z" transform="translate(-948.559 -663.451)"/><path class="b" d="M997.116,673.782c-.024-.069-.051-.136-.077-.2-.313.407-2.166,2.786-5.05,5.827l5.4-1.169A8.939,8.939,0,0,0,997.116,673.782Z" transform="translate(-953.724 -658.221)"/><path class="b" d="M962.858,709.234q-.61.384-1.217.74l9.815,1.6-.071.1q.955-.733,1.841-1.521l-10.4-.872Z" transform="translate(-937.833 -676.89)"/><path class="b" d="M971.775,698.379l10.014.02-.059.106a26.681,26.681,0,0,0,3.485-5.246l-8.77,1.284Q974.1,696.642,971.775,698.379Z" transform="translate(-943.14 -668.526)"/><path class="b" d="M964.689,706.579l10.312.865-.066.106a31.843,31.843,0,0,0,3-3.079l-10.149-.02Q966.225,705.6,964.689,706.579Z" transform="translate(-939.429 -674.385)"/><path class="b" d="M926.336,681.251l.227-.233a26.5,26.5,0,0,0,6.119-1.748l.281-7.432q.124-.284.242-.571l-.3,7.908a38.331,38.331,0,0,0,4.112-2.045l-.958-13.815.225-.118.956,13.8h.01a51.763,51.763,0,0,0,4.652-3.058l-1.043-13.6c.074-.054.148-.107.221-.162l1.043,13.594q.5-.367.977-.739l-.86-13.762.221-.182.861,13.772c1.324-1.032,2.553-2.074,3.666-3.073l-.541-13.839.112-.059c-.384.1-.775.219-1.169.349a19.506,19.506,0,0,0,1.991-2.715l-8.7,4.5a29.164,29.164,0,0,1-2.028,3.3c-.156.147-.311.294-.464.447l.011.165c-.071.094-.142.188-.214.28L935.97,662c-.11.112-.217.232-.325.348a27.5,27.5,0,0,0,2.888-4.416l-8.507-11.1c.058.992.155,1.991.28,2.981a16.785,16.785,0,0,0-2.852-3.485l.067.086-1.966,5.357c.456,1.834.909,3.9,1.287,6.109l3.494-7.835c.016.122.033.244.049.366L926.9,658.23q.517,3.1.741,6l4.183-6.571.071.282-4.228,6.642q.138,1.93.142,3.751l5.114-6.747.08.26-5.168,6.819-.025-.053q0,.722-.026,1.424l5.768-6.494q.046.136.085.25L927.77,670.4c-.006.145-.011.291-.018.435a38.188,38.188,0,0,1-.431,4.121l.556-.564q-.158.328-.308.647l-.317.321c-.036.209-.078.413-.118.618q-.175.385-.338.751c.1-.468.2-.94.286-1.415l-11.522-7.926a71.065,71.065,0,0,0,9.029,15.47c.294-.549.562-1.115.807-1.692l.213-.021c-.029.071-.06.141-.09.211l-.108.013.092.025c-.173.4-.352.8-.544,1.182.252-.226.634-.584,1.092-1.037,2.709.692,10.008,2.17,16.257-.014l-9.575-2.082A26.78,26.78,0,0,1,926.336,681.251Zm6.728-12.116.23-.232-.013.348-.23.232Z" transform="translate(-913.706 -643.955)"/><path class="b" d="M996.8,669.377l.081.023a6.046,6.046,0,0,0-4.588-3.642l-.539,9.452C994.875,671.917,996.775,669.413,996.8,669.377Z" transform="translate(-953.601 -654.126)"/><path class="b" d="M956.112,711.386a38.032,38.032,0,0,1-3.711,1.842l9.484,2.063-.072.1a15.1,15.1,0,0,0,3.395-1.729q.619-.426,1.213-.878l-9.931-1.616C956.363,711.242,956.238,711.315,956.112,711.386Z" transform="translate(-932.995 -677.903)"/><path class="b" d="M981.4,679.541c1.641-1.485,3.128-2.958,4.417-4.309l.552-9.668.112-.052a12.849,12.849,0,0,0-5.618.3Z" transform="translate(-947.9 -653.904)"/><path class="b" d="M935.835,643.776a8.939,8.939,0,0,0-3.912-2.152c-.071-.016-.142-.03-.212-.043.176.482,1.193,3.321,2.219,7.384Z" transform="translate(-922.163 -641.468)"/><path class="b" d="M924.87,663.364l-11.979-6.952.011-.126a22.277,22.277,0,0,0-.9,4.4l13.5,7.421C925.34,666.434,925.118,664.838,924.87,663.364Z" transform="translate(-911.842 -649.167)"/><path class="b" d="M911.735,668.906l-.009.127c0-.043.007-.084.009-.127Z" transform="translate(-911.699 -655.775)"/><path class="b" d="M911.951,665.908h0c0-.042,0-.086.009-.127Z" transform="translate(-911.816 -654.138)"/><path class="b" d="M925.4,673.5l-13.553-7.447q-.066.667-.1,1.362l13.752,7.306Q925.453,674.1,925.4,673.5Z" transform="translate(-911.709 -654.278)"/><path class="b" d="M926.163,689.139l-13.34-7.213a30.846,30.846,0,0,0,1.243,3.935l.017-.138,11.606,7.984A38.235,38.235,0,0,0,926.163,689.139Z" transform="translate(-912.273 -662.592)"/><path class="b" d="M925.381,641.5l.062-.056a6.046,6.046,0,0,0-5.532,1.926l7.694,5.516C926.495,644.484,925.4,641.538,925.381,641.5Z" transform="translate(-915.985 -641.343)"/><path class="b" d="M924.577,651.517l-7.871-5.642.017-.122a12.845,12.845,0,0,0-2.753,4.906l11.882,6.9C925.476,655.374,925.028,653.329,924.577,651.517Z" transform="translate(-912.874 -643.652)"/><path class="b" d="M925.57,682.336a51.79,51.79,0,0,0-.093-5.566l-13.787-7.324q-.043,1.12,0,2.3a18.578,18.578,0,0,0,.458,3.342l13.416,7.254Z" transform="translate(-911.669 -656.057)"/></g></g><path class="e" d="M60.812,727H511.5v6.448a10.226,10.226,0,0,1-10.226,10.226H71.038a10.226,10.226,0,0,1-10.226-10.226h0V727Z" transform="translate(-6.938 -380.649)"/><rect class="f" width="450.685" height="9.052" transform="translate(53.874 341.111)"/><g transform="translate(390.491 152.849)"><path class="g" d="M902.526,310.835H842.545a4.414,4.414,0,0,0-4.4,4.4v19.341h-23.4a4.414,4.414,0,0,0-4.4,4.4v24.739H781.781a4.414,4.414,0,0,0-4.4,4.4V403.3a4.414,4.414,0,0,0,4.4,4.4h35.8v21.13a4.414,4.414,0,0,0,4.4,4.4h59.982a4.414,4.414,0,0,0,4.4-4.4V393.649a4.414,4.414,0,0,0-4.4-4.4h-35.8V378.564h28.562a4.414,4.414,0,0,0,4.4-4.4V354.822h23.4a4.414,4.414,0,0,0,4.4-4.4V315.236A4.414,4.414,0,0,0,902.526,310.835Z" transform="translate(-771.594 -305.39)"/><rect class="f" width="14.235" height="141.341" rx="7.117" transform="translate(68.167 52.882)"/><rect class="h" width="68.784" height="43.987" rx="6" transform="translate(40.199 78.413)"/><rect class="h" width="68.784" height="43.987" rx="6" transform="translate(0 52.882)"/><rect class="h" width="68.784" height="43.987" rx="6" transform="translate(32.963 23.742)"/><rect class="h" width="68.784" height="43.987" rx="6" transform="translate(60.764 0)"/></g><path class="i" d="M690.05,260.779H673.4a5.592,5.592,0,0,0-5.593,5.593v16.646a5.592,5.592,0,0,0,9.547,3.955l16.646-16.646A5.593,5.593,0,0,0,690.05,260.779Z" transform="translate(-324.756 -136.541)"/><path class="i" d="M276.171,426.542h-9.945a3.342,3.342,0,0,0-3.342,3.341v9.945a3.342,3.342,0,0,0,5.7,2.363l9.945-9.945A3.341,3.341,0,0,0,276.171,426.542Z" transform="translate(-112.74 -223.332)"/><path class="i" d="M428.05,171.779H411.4a5.592,5.592,0,0,0-5.593,5.593v16.646a5.592,5.592,0,0,0,9.547,3.955l16.646-16.646A5.593,5.593,0,0,0,428.05,171.779Z" transform="translate(-187.576 -89.941)"/><path class="i" d="M690.05,83.779H673.4a5.592,5.592,0,0,0-5.593,5.593v16.646a5.592,5.592,0,0,0,9.547,3.955l16.646-16.646A5.593,5.593,0,0,0,690.05,83.779Z" transform="translate(-324.756 -43.866)"/><g transform="translate(42.115 177.436)"><path class="b" d="M53.28,698.541a9.589,9.589,0,0,0,3.571,4.831,8.255,8.255,0,0,0-2.923-10.8A9.591,9.591,0,0,0,53.28,698.541Z" transform="translate(-30.689 -540.056)"/><path class="j" d="M53.28,698.541a9.589,9.589,0,0,0,3.571,4.831,8.255,8.255,0,0,0-2.923-10.8A9.591,9.591,0,0,0,53.28,698.541Z" transform="translate(-30.689 -540.056)"/><path class="b" d="M49.954,701.191a9.59,9.59,0,0,1,2.485,5.47,9.59,9.59,0,0,1-5.534-2.337,9.589,9.589,0,0,1-2.485-5.469A9.587,9.587,0,0,1,49.954,701.191Z" transform="translate(-26.178 -543.348)"/><rect class="f" width="2.799" height="110.553" transform="translate(26.056 53.122)"/><g class="k" transform="translate(-13.459 -363.673)"><path class="r" d="M74.814,432.653c.139,30.041-16.255,55.737-23.57,65.7a4.321,4.321,0,0,1-6.94.032c-7.406-9.9-24.036-35.44-24.174-65.48s16.255-55.737,23.57-65.7a4.321,4.321,0,0,1,6.94-.032C58.046,377.067,74.676,402.612,74.814,432.653Z"/><path class="s" d="M 47.181640625 366.4421081542969 C 46.11283874511719 366.4421081542969 45.13745880126953 366.9356689453125 44.50563812255859 367.796142578125 C 40.57849884033203 373.1450500488281 34.88034057617188 381.8468627929688 30.03598022460938 392.9261474609375 C 24.0670166015625 406.5775146484375 21.07061767578125 420.0267333984375 21.13002014160156 432.9002380371094 C 21.18923950195312 445.7737121582031 24.30945587158203 459.1947326660156 30.40403747558594 472.7905578613281 C 35.35036087036133 483.8248291015625 41.12847900390625 492.4736328125 45.10469818115234 497.7860107421875 C 45.73719787597656 498.6310119628906 46.70581817626953 499.1156616210938 47.76218032836914 499.1156616210938 C 48.83103942871094 499.1156616210938 49.80649948120117 498.6220703125 50.43840026855469 497.7615661621094 C 54.36555862426758 492.4125366210938 60.06373977661133 483.710693359375 64.90803527832031 472.6315002441406 C 70.87702178955078 458.9801330566406 73.87342071533203 445.5309143066406 73.81401824951172 432.657470703125 C 73.75479888916016 419.7838745117188 70.63455963134766 406.3628234863281 64.53993988037109 392.7670593261719 C 59.59321975708008 381.7320251464844 53.81507873535156 373.0836181640625 49.83884048461914 367.7716369628906 C 49.20647811889648 366.9266967773438 48.23796081542969 366.4421081542969 47.181640625 366.4421081542969 M 47.18164443969727 365.442138671875 C 48.47859573364258 365.442138671875 49.7755241394043 366.0181274414062 50.63943862915039 367.1724243164062 C 58.04621887207031 377.0674133300781 74.67584228515625 402.6121826171875 74.81399536132812 432.6528625488281 C 74.95263671875 462.6934509277344 58.55929946899414 488.39013671875 51.24448013305664 498.3533630371094 C 50.38230133056641 499.5274963378906 49.07239532470703 500.1156616210938 47.76217651367188 500.1156616210938 C 46.46532440185547 500.1156616210938 45.16816711425781 499.5395812988281 44.30411911010742 498.38525390625 C 36.89781951904297 488.4901428222656 20.26819610595703 462.9454345703125 20.13003540039062 432.9048461914062 C 19.99140167236328 402.8641967773438 36.38471984863281 377.16748046875 43.69955825805664 367.2043151855469 C 44.56162261962891 366.0303039550781 45.87164306640625 365.442138671875 47.18164443969727 365.442138671875 Z"/></g><path class="h" d="M60.814,439.653c.139,30.041-16.255,55.737-23.57,65.7a4.321,4.321,0,0,1-6.94.032C22.9,495.49,6.268,469.945,6.13,439.9s16.255-55.737,23.57-65.7a4.321,4.321,0,0,1,6.94-.032C44.046,384.067,60.676,409.612,60.814,439.653Z" transform="translate(-6.129 -372.442)"/></g><g transform="translate(309.63 268.235)"><path class="c" d="M498.352,171l.02.019v0a21.239,21.239,0,0,1,4.454,6.253c.388-.432.663-.7.663-.7l.013.013v0c.221.214,3.22,3.175,3.22,5.521,0,2.265-1.252,3.159-2.864,3.273l.117,2.234h-.327l-.036-2.223-.124,0a3,3,0,0,1-2.792-1.353,5.771,5.771,0,0,1-1.78.393l.178,3.409h-.5l-.055-3.391-.189,0c-2.725,0-4.934-1.3-4.934-5.013S498.352,171,498.352,171Z" transform="translate(-475.013 -161.233)"/><ellipse class="l" cx="26.003" cy="1.525" rx="26.003" ry="1.525" transform="translate(0 74.769)"/><rect class="f" width="5.778" height="14.232" rx="1.5" transform="translate(35.166 27.642) rotate(-150)"/><path class="e" d="M561.861,217.826s-2.755-1.325-4.715-.831l4.715-12.715v-1.306l-6.673,15.878h0c-1.668,3.145-3.778,10.313-.182,10.888a99.341,99.341,0,0,1,11.424,3.1l1.632-14.2Z" transform="translate(-542.733 -189.782)"/><path class="m" d="M407.607,268.654s4.407-5.549,5.549-3.591-5.131,5.253-5.131,5.253Z" transform="translate(-372.403 -244.854)"/><path class="n" d="M447.036,295.465l1.8-.979a27.869,27.869,0,0,1,1.142,3.427c0,.49-1.8.653-1.8.653Z" transform="translate(-413.301 -271.502)"/><ellipse class="m" cx="4.243" cy="4.243" rx="4.243" ry="4.243" transform="translate(23.437 12.231) rotate(-99.992)"/><path class="m" d="M525.544,143.492s-1.8,5.386-3.1,5.712,5.059,2.774,5.059,2.774,1.958-4.57,2.938-5.712S525.544,143.492,525.544,143.492Z" transform="translate(-501.928 -136.665)"/><path class="o" d="M569.326,348.75c-3.518-.563-1.576-7.434.072-10.677a2.169,2.169,0,0,0-.4.4c-1.632,2.122-4.9,11.261-.816,11.914a99.336,99.336,0,0,1,11.424,3.1l.222-1.932A89.154,89.154,0,0,0,569.326,348.75Z" transform="translate(-555.91 -310.425)"/><path class="e" d="M653.658,700.185s-4.08,3.264-3.754,3.591,3.754,5.549,6.692,6.039,4.243.49,4.243,0a3.237,3.237,0,0,0-2.285-2.122c-1.469-.49-1.632-3.754-1.469-4.407S653.658,700.185,653.658,700.185Z" transform="translate(-645.873 -633.788)"/><path class="e" d="M548.561,472.932l-2.611,12.24s-10.772,12.077-10.445,12.24,3.591,3.427,4.243,3.427,11.914-12.73,11.914-12.73l4.08-10.608Z" transform="translate(-528.535 -430.853)"/><path class="o" d="M548.561,472.932l-2.611,12.24s-10.772,12.077-10.445,12.24,3.591,3.427,4.243,3.427,11.914-12.73,11.914-12.73l4.08-10.608Z" transform="translate(-528.535 -430.853)"/><path class="e" d="M442.347,431.485a22.851,22.851,0,0,0,4.9,9.3c3.591,3.754,5.223,11.424,5.223,11.424l3.591,15.341s6.365-.816,6.039-2.448l-3.427-13.546s-3.917-18.769-6.039-20.074S442.347,431.485,442.347,431.485Z" transform="translate(-424.932 -393.323)"/><path class="e" d="M378.831,748.935s-.979,3.1-.326,3.427,12.241.979,12.893-1.306c0,0,.326-1.142-2.285-1.142s-5.386-2.448-5.386-2.448Z" transform="translate(-347.381 -676.01)"/><path class="p" d="M522.078,183.864s-4.243-4.243-5.386-3.917-1.143,1.959-1.143,1.959-3.591.49-3.264,12.24-2.938,13.056-1.8,13.709,14.2,3.591,14.689.653.327-14.2-.979-17.789S521.262,184.843,522.078,183.864Z" transform="translate(-495.524 -169.203)"/><path class="p" d="M454.87,225.621s-4.9,2.285-2.122,6.691,4.9,9.14,7.834,8.976,7.508-2.938,8.813-2.938-.49-4.733-1.469-4.9-5.549,2.611-5.549,2.611S460.745,224.968,454.87,225.621Z" transform="translate(-433.702 -209.981)"/><path class="e" d="M488.726,87.482a5.7,5.7,0,0,1,1.075.148,2.721,2.721,0,0,0,2.908-2.028,1.56,1.56,0,0,1,.149-.485.96.96,0,0,1,1.02-.31,7.873,7.873,0,0,0,1.1.268,1.687,1.687,0,0,0,1.457-.824,2.8,2.8,0,0,0,.358-1.688l-.28.294a1.422,1.422,0,0,1-.127-.773.9.9,0,0,0-.85.217c-.247.026-.061-.458-.244-.626a.424.424,0,0,0-.3-.056,2.38,2.38,0,0,1-1.365-.72,5.8,5.8,0,0,0-2.449-1.117,3.221,3.221,0,0,0-1.787.087,3.818,3.818,0,0,0-1.207.856,7.368,7.368,0,0,0-2.028,3.008,5.064,5.064,0,0,0-.024,2.937c.148.5.593,2.206,1.244,2.245C488.2,88.964,487.707,87.543,488.726,87.482Z" transform="translate(-464.293 -79.697)"/></g><path class="i" d="M560.051,348.779H543.4a5.592,5.592,0,0,0-5.593,5.593v16.646a5.592,5.592,0,0,0,9.547,3.955l16.646-16.646A5.593,5.593,0,0,0,560.051,348.779Z" transform="translate(-258.731 -184.658)"/><path class="q" d="M690.05,83.779H673.4a5.592,5.592,0,0,0-5.593,5.593v16.646a5.592,5.592,0,0,0,9.547,3.955l16.646-16.646A5.593,5.593,0,0,0,690.05,83.779Z" transform="translate(-320.756 -39.866)"/><path class="q" d="M690.05,83.779H673.4a5.592,5.592,0,0,0-5.593,5.593v16.646a5.592,5.592,0,0,0,9.547,3.955l16.646-16.646A5.593,5.593,0,0,0,690.05,83.779Z" transform="translate(-384.756 84.134)"/><g transform="translate(-820.771 -3861.25)"><path class="i" d="M1677.542,624.233h17.51a5.883,5.883,0,0,1,4.16,10.043l-17.51,17.51a5.883,5.883,0,0,1-10.043-4.16v-17.51A5.883,5.883,0,0,1,1677.542,624.233Z" transform="translate(-404.837 3201.589)"/><path class="q" d="M1677.542,624.233h17.51a5.883,5.883,0,0,1,4.16,10.043l-17.51,17.51a5.883,5.883,0,0,1-10.043-4.16v-17.51A5.883,5.883,0,0,1,1677.542,624.233Z" transform="translate(-400.263 3206.164)"/><path class="q" d="M1677.542,624.233h17.51a5.883,5.883,0,0,1,4.16,10.043l-17.51,17.51a5.883,5.883,0,0,1-10.043-4.16v-17.51A5.883,5.883,0,0,1,1677.542,624.233Z" transform="translate(-395.447 3210.979)"/></g></g></svg>