<svg width="11em" height="11em" viewBox="0 0 133 50" fill="none" xmlns="http://www.w3.org/2000/svg">
<path d="M39.3644 10.8222H36.0307V7.0574C36.0297 5.84902 35.5496 4.69044 34.696 3.83599C33.8423 2.98154 32.6848 2.50105 31.4776 2.5H19.2752C18.4579 2.49985 17.6554 2.71879 16.9512 3.13407L3.48975 11.06C2.80409 11.4664 2.23654 12.0452 1.84344 12.739C1.45034 13.4328 1.24535 14.2174 1.24882 15.015L1.35968 37.5444C1.36803 38.7487 1.85103 39.901 2.70367 40.7507C3.5563 41.6005 4.70962 42.0789 5.9128 42.082H9.28607V42.1296H12.4535H31.4974C32.7046 42.1285 33.8621 41.648 34.7158 40.7936C35.5694 39.9391 36.0495 38.7805 36.0505 37.5722V13.9688H39.3842C39.777 13.9833 40.1481 14.1526 40.4166 14.44C40.6851 14.7273 40.8292 15.1092 40.8174 15.5025V45.2999C40.8292 45.6928 40.685 46.0743 40.4164 46.361C40.1477 46.6477 39.7766 46.8162 39.3842 46.8296H12.9998V50H39.3644C39.9738 49.9927 40.5757 49.8654 41.136 49.6253C41.6962 49.3852 42.2036 49.0369 42.6294 48.6005C43.0551 48.164 43.3908 47.6479 43.6173 47.0816C43.8437 46.5153 43.9565 45.9099 43.9492 45.2999V15.5025C43.9587 14.274 43.4816 13.0919 42.6223 12.2147C41.7631 11.3375 40.5916 10.8368 39.3644 10.8222ZM5.9128 38.9116C5.54629 38.9106 5.19502 38.7647 4.93549 38.5056C4.67595 38.2466 4.52916 37.8954 4.52707 37.5286L4.41621 14.9992C4.41675 14.7589 4.47984 14.5228 4.59925 14.3144C4.71866 14.1059 4.89028 13.9322 5.0972 13.8103L18.5586 5.88436C18.7743 5.75081 19.0216 5.67696 19.2752 5.67036H31.4776C31.8451 5.67036 32.1976 5.8165 32.4574 6.07662C32.7173 6.33674 32.8633 6.68954 32.8633 7.0574V10.8222H20.4036C19.5648 10.819 18.7419 11.051 18.0281 11.4919L11.2776 15.6451L11.2261 15.6768C10.5839 16.1096 10.0595 16.6956 9.70006 17.3819C9.34063 18.0682 9.15754 18.8333 9.16729 19.6081L9.26628 38.9116H5.9128ZM32.8633 37.5246C32.8623 37.8921 32.7159 38.2443 32.4563 38.5042C32.1966 38.7641 31.8448 38.9106 31.4776 38.9116H12.4178L12.3347 19.5922C12.3309 19.3438 12.3864 19.0981 12.4966 18.8755C12.6068 18.6528 12.7684 18.4597 12.9682 18.3122L19.6989 14.1749C19.9126 14.0411 20.1594 13.9697 20.4115 13.9688H32.8633V37.5246Z" fill="white"/>
<path d="M63.6829 28.4148V30.6485H55.7078V18.125H63.5169V20.3626H58.2225V23.3434H62.8684V25.6168H58.2225V28.3989L63.6829 28.4148Z" fill="white"/>
<path d="M71.148 30.6484L69.2857 27.9418L67.3878 30.6484H64.62L67.9651 26.0499L65.1775 22.1788H67.9809L69.3213 24.1263L70.6221 22.1788H73.3899L70.6221 26.0499L73.9316 30.6484H71.148Z" fill="white"/>
<path d="M84.3818 26.3958C84.3818 29.1223 82.4049 30.8114 80.242 30.8114C79.2852 30.8114 78.1267 30.4497 77.5296 29.5952V34.8137H75.1572V22.1789H77.5296V23.1964C78.1267 22.3419 79.2852 21.9603 80.242 21.9603C82.4128 21.9603 84.3818 23.6693 84.3818 26.3958ZM81.962 26.3958C81.9644 25.9609 81.838 25.5351 81.5991 25.1725C81.3602 24.8099 81.0195 24.5268 80.6202 24.3593C80.2209 24.1918 79.781 24.1473 79.3565 24.2316C78.9321 24.3159 78.5421 24.5251 78.2361 24.8326C77.9302 25.1401 77.7221 25.5321 77.6382 25.9588C77.5544 26.3855 77.5986 26.8276 77.7653 27.229C77.9319 27.6303 78.2135 27.9728 78.5743 28.213C78.935 28.4532 79.3586 28.5801 79.7913 28.5778C80.0774 28.5815 80.3613 28.5276 80.6264 28.4193C80.8914 28.311 81.1322 28.1504 81.3345 27.947C81.5368 27.7437 81.6966 27.5016 81.8044 27.2352C81.9121 26.9688 81.9657 26.6834 81.962 26.3958Z" fill="white"/>
<path d="M94.5634 27.1787H88.2371C88.4901 28.1604 89.2849 28.7049 90.4236 28.7049C90.837 28.7126 91.2472 28.6323 91.6275 28.4693C92.0078 28.3063 92.3494 28.0642 92.6299 27.759L94.0217 29.158C93.231 30.2311 91.7443 30.8114 90.2615 30.8114C87.6756 30.8114 85.7777 29.0308 85.7777 26.4156C85.7777 23.6693 87.8377 21.9603 90.2615 21.9603C92.6853 21.9603 94.6346 23.6693 94.6346 26.2686C94.6148 26.507 94.599 26.7972 94.5634 27.1787ZM92.2306 25.6327C92.1594 24.6351 91.3291 24.0429 90.2536 24.0429C89.7755 24.0053 89.3006 24.147 88.9202 24.4405C88.5398 24.7341 88.281 25.1587 88.1936 25.6327H92.2306Z" fill="white"/>
<path d="M104.69 25.9983V30.6484H102.317V26.2368C102.317 24.8894 101.526 24.2893 100.708 24.2893C99.8894 24.2893 98.81 24.7463 98.81 26.2765V30.6484H96.4376V22.1789H98.81V23.5977C99.1738 22.4531 100.51 21.9603 101.341 21.9603C103.547 21.9603 104.705 23.4547 104.69 25.9983Z" fill="white"/>
<path d="M106.425 27.922H108.647C108.647 28.4148 109.043 28.9394 109.897 28.9394C110.585 28.9394 111.107 28.6493 111.107 28.1445C111.107 27.7789 110.818 27.6 110.186 27.4331L109.063 27.1628C106.896 26.5786 106.607 25.3624 106.607 24.4721C106.607 23.1646 107.963 21.9444 109.913 21.9444C111.451 21.9444 113.258 22.7075 113.242 24.7066H110.98C110.98 24.1462 110.51 23.8362 109.952 23.8362C109.395 23.8362 108.976 24.1105 108.976 24.5437C108.976 24.9769 109.335 25.1438 109.806 25.271L111.198 25.6367C113.222 26.1812 113.475 27.453 113.475 28.1445C113.475 29.9251 111.668 30.7955 109.917 30.7955C108.165 30.7955 106.457 29.8138 106.425 27.922Z" fill="white"/>
<path d="M124.088 22.1789V30.6484H121.715V29.5952C121.118 30.4298 119.944 30.8113 119.003 30.8113C116.832 30.8113 114.863 29.1222 114.863 26.3957C114.863 23.6693 116.84 21.9801 119.003 21.9801C119.98 21.9801 121.118 22.3418 121.715 23.1963V22.1789H124.088ZM121.648 26.3957C121.645 25.8173 121.415 25.2636 121.008 24.8549C120.6 24.4463 120.049 24.2159 119.473 24.2138C119.187 24.2101 118.902 24.2639 118.636 24.372C118.37 24.4802 118.128 24.6405 117.925 24.8436C117.721 25.0468 117.56 25.2887 117.45 25.5551C117.341 25.8216 117.285 26.1074 117.287 26.3957C117.311 26.963 117.552 27.499 117.96 27.8919C118.368 28.2847 118.911 28.5041 119.475 28.5041C120.04 28.5041 120.583 28.2847 120.991 27.8919C121.399 27.499 121.64 26.963 121.664 26.3957H121.648Z" fill="white"/>
<path d="M125.95 27.922H128.172C128.172 28.4148 128.587 28.9394 129.422 28.9394C130.11 28.9394 130.632 28.6493 130.632 28.1445C130.632 27.7789 130.343 27.6 129.71 27.4331L128.587 27.1628C126.421 26.5786 126.132 25.3624 126.132 24.4721C126.132 23.1646 127.488 21.9444 129.437 21.9444C130.976 21.9444 132.783 22.7075 132.767 24.7066H130.505C130.505 24.1462 130.035 23.8362 129.477 23.8362C128.919 23.8362 128.5 24.1105 128.5 24.5437C128.5 24.9769 128.86 25.1438 129.331 25.271L130.723 25.6367C132.747 26.1812 133 27.453 133 28.1445C133 29.9251 131.193 30.7955 129.441 30.7955C127.69 30.7955 125.966 29.8138 125.95 27.922Z" fill="white"/>
<path d="M54.9486 43.5813C54.9603 42.3262 55.3413 41.1026 56.0435 40.0647C56.7458 39.0268 57.7378 38.2211 58.8948 37.7489C60.0518 37.2767 61.3219 37.1593 62.5452 37.4113C63.7684 37.6634 64.8901 38.2737 65.769 39.1653C66.6478 40.057 67.2445 41.1901 67.4838 42.422C67.7231 43.6539 67.5944 44.9295 67.1139 46.088C66.6334 47.2465 65.8225 48.2361 64.7835 48.9323C63.7445 49.6284 62.5237 49.9999 61.275 50C60.4392 50 59.6117 49.8336 58.8402 49.5103C58.0688 49.187 57.3687 48.7132 56.7805 48.1164C56.1923 47.5196 55.7275 46.8115 55.4131 46.0331C55.0987 45.2547 54.9408 44.4214 54.9486 43.5813ZM65.0906 43.5813C65.0906 41.3278 63.509 39.5273 61.275 39.5273C59.041 39.5273 57.4594 41.3278 57.4594 43.5813C57.4594 45.8348 59.041 47.6352 61.275 47.6352C63.509 47.6352 65.0906 45.8348 65.0906 43.5813Z" fill="white"/>
<path d="M77.7473 45.183V49.8331H75.3749V45.4373C75.3749 44.09 74.5841 43.4898 73.7656 43.4898C72.9472 43.4898 71.8677 43.9469 71.8677 45.4771V49.8211H69.4954V41.3635H71.8677V42.7824C72.2276 41.6378 73.568 41.1449 74.3983 41.1449C76.6086 41.1449 77.7671 42.6353 77.7473 45.183Z" fill="white"/>
<path d="M80.0248 36.8406H82.3972V49.833H80.0248V36.8406Z" fill="white"/>
<path d="M84.4531 38.4225C84.4373 38.1199 84.5121 37.8196 84.6679 37.5602C84.8237 37.3009 85.0533 37.0945 85.3271 36.9677C85.6008 36.8409 85.9061 36.7996 86.2035 36.8491C86.5008 36.8985 86.7766 37.0365 86.9951 37.2452C87.2136 37.4538 87.3648 37.7236 87.4292 38.0195C87.4936 38.3155 87.4682 38.6241 87.3562 38.9054C87.2443 39.1867 87.051 39.4277 86.8013 39.5974C86.5516 39.7671 86.257 39.8576 85.9556 39.8573C85.5675 39.8658 85.1918 39.7198 84.9103 39.451C84.6289 39.1823 84.4645 38.8125 84.4531 38.4225ZM84.7813 41.3636H87.1537V49.8331H84.7813V41.3636Z" fill="white"/>
<path d="M97.782 45.183V49.8331H95.4096V45.4373C95.4096 44.09 94.6188 43.4898 93.8004 43.4898C92.9819 43.4898 91.8985 43.9469 91.8985 45.4771V49.8211H89.5261V41.3635H91.8985V42.7824C92.2623 41.6378 93.5987 41.1449 94.433 41.1449C96.6433 41.1449 97.7978 42.6353 97.782 45.183Z" fill="white"/>
<path d="M108.375 46.3634H102.009C102.262 47.3451 103.061 47.8896 104.199 47.8896C104.616 47.9001 105.03 47.8212 105.414 47.6581C105.798 47.4949 106.143 47.2514 106.425 46.9436L107.817 48.3426C107.026 49.4157 105.54 50 104.057 50C101.471 50 99.5732 48.2155 99.5732 45.6003C99.5732 42.8539 101.633 41.1449 104.057 41.1449C106.481 41.1449 108.402 42.8539 108.402 45.4532C108.402 45.7116 108.402 45.9818 108.375 46.3634ZM106.042 44.8173C105.971 43.8197 105.14 43.2275 104.065 43.2275C103.586 43.1899 103.111 43.3314 102.73 43.6249C102.349 43.9183 102.089 44.343 102.001 44.8173H106.042Z" fill="white"/>
</svg>
