<svg xmlns="http://www.w3.org/2000/svg" width="64.085" height="64.085" viewBox="0 0 64.085 64.085"><defs><style>.a{fill:#3ee5c9;}</style></defs><g transform="translate(0)"><path class="a" d="M296.566,208H275.2a3.2,3.2,0,0,0-3.2,3.2v29.906a3.2,3.2,0,0,0,3.2,3.2h21.362a3.2,3.2,0,0,0,3.2-3.2V211.2A3.2,3.2,0,0,0,296.566,208Zm-11.749,34.179H275.2a1.068,1.068,0,0,1-1.068-1.068v-7.477h10.681Zm0-10.681H274.136v-8.545h10.681Zm12.817,9.613a1.068,1.068,0,0,1-1.068,1.068h-9.613v-8.545h10.681Zm0-9.613H286.953v-8.545h10.681Zm0-10.681h-23.5V211.2a1.068,1.068,0,0,1,1.068-1.068h21.362a1.068,1.068,0,0,1,1.068,1.068Z" transform="translate(-235.685 -180.23)"/><path class="a" d="M322.157,240H305.068A1.068,1.068,0,0,0,304,241.068v4.272a1.068,1.068,0,0,0,1.068,1.068h17.089a1.068,1.068,0,0,0,1.068-1.068v-4.272A1.068,1.068,0,0,0,322.157,240Zm-1.068,4.272H306.136v-2.136h14.953Z" transform="translate(-263.413 -207.958)"/><path class="a" d="M308.272,330.136V328h-2.136v2.136H304v2.136h2.136v2.136h2.136v-2.136h2.136v-2.136Z" transform="translate(-263.413 -284.209)"/><rect class="a" width="6.408" height="2.136" transform="translate(53.404 45.928)"/><path class="a" d="M311.417,411.854l-1.51-1.51-1.51,1.51-1.51-1.51-1.51,1.51,1.51,1.51-1.51,1.51,1.51,1.51,1.51-1.51,1.51,1.51,1.51-1.51-1.51-1.51Z" transform="translate(-264.605 -355.559)"/><rect class="a" width="6.408" height="2.136" transform="translate(53.404 56.608)"/><rect class="a" width="2.136" height="1.068" transform="translate(55.54 59.279)"/><rect class="a" width="2.136" height="1.068" transform="translate(55.54 55.006)"/><path class="a" d="M42.723,0H11.749V.01a1.061,1.061,0,0,0-.755.3L.313,10.994a1.058,1.058,0,0,0-.3.755H0v50.2a2.136,2.136,0,0,0,2.136,2.136H34.179V61.949H27.77v-3.2h2.136a1.068,1.068,0,0,0,1.068-1.068v-5.34a1.068,1.068,0,0,0-1.068-1.068H27.77v-3.2h2.136A1.068,1.068,0,0,0,30.974,47v-5.34a1.068,1.068,0,0,0-1.068-1.068h-.028a10.681,10.681,0,1,0-12.761,0H8.545a1.068,1.068,0,0,0-1.068,1.068v4.272H5.34A1.068,1.068,0,0,0,4.272,47v5.34A1.068,1.068,0,0,0,5.34,53.4H7.477v3.2H5.34a1.068,1.068,0,0,0-1.068,1.068v4.272H2.136V12.817h8.545a2.136,2.136,0,0,0,2.136-2.136V2.136H42.723v23.5h2.136V2.136A2.136,2.136,0,0,0,42.723,0ZM28.838,53.4v3.2H9.613V53.4ZM14.953,32.042A8.545,8.545,0,1,1,23.5,40.587,8.545,8.545,0,0,1,14.953,32.042ZM9.613,42.723H28.838v3.2H9.613Zm-3.2,8.545v-3.2H25.634v3.2H6.408Zm0,7.477H25.634v3.2H6.408Zm4.272-48.064H3.646l7.034-7.034Z"/><path class="a" d="M364.817,5.34h-2.136a1.068,1.068,0,0,0-1.068-1.068h-1.068v-3.2A1.068,1.068,0,0,0,359.477,0H355.2a1.068,1.068,0,0,0-1.068,1.068v3.2h-1.068A1.068,1.068,0,0,0,352,5.34V25.634h2.136V6.408h6.409V25.634h2.136V7.477h2.136V21.362h2.136V7.477A2.136,2.136,0,0,0,364.817,5.34Zm-6.409-1.068h-2.136V2.136h2.136Z" transform="translate(-305.004)"/><rect class="a" width="18.157" height="2.136" transform="translate(16.021 8.545)"/><rect class="a" width="36.315" height="2.136" transform="translate(4.272 14.953)"/><rect class="a" width="12.817" height="2.136" transform="translate(4.272 19.225)"/><rect class="a" width="9.613" height="2.136" transform="translate(30.974 19.225)"/><path class="a" d="M51.284,145.853a1.1,1.1,0,0,1-1.095-1.095H48a3.285,3.285,0,0,0,2.19,3.083v1.3h2.19v-1.3a3.276,3.276,0,0,0-1.095-6.367,1.095,1.095,0,1,1,1.095-1.095h2.19a3.285,3.285,0,0,0-2.19-3.083V136H50.19v1.3a3.276,3.276,0,0,0,1.095,6.367,1.095,1.095,0,1,1,0,2.189Z" transform="translate(-27.8 -110.389)"/></g></svg>