<svg xmlns="http://www.w3.org/2000/svg" width="74" height="68.962" viewBox="0 0 74 68.962"><defs><style>.a{fill:#3ee5c9;}</style></defs><g transform="translate(-9 -25.634)"><path class="a" d="M338.041,285.041h1.1a1.049,1.049,0,1,0,0-2.1H339.1V280.1h2.892a1.009,1.009,0,0,0,1,.708,1.051,1.051,0,0,0,1.054-1.046v-.706A1.063,1.063,0,0,0,342.98,278h-4.94A1.046,1.046,0,0,0,337,279.054v4.94a1.041,1.041,0,0,0,1.041,1.047Z" transform="translate(-278.866 -214.562)"/><path class="a" d="M344.04,343.049A1.049,1.049,0,0,0,342.992,342h-4.943A1.049,1.049,0,0,0,337,343.049v4.943a1.049,1.049,0,0,0,1.049,1.049h4.943a1.049,1.049,0,0,0,1.049-1.049ZM339.1,344.1h2.846v2.846H339.1Z" transform="translate(-278.866 -268.975)"/><path class="a" d="M339.138,410.943H339.1V408.1h2.836a1.054,1.054,0,1,0,2.108,0v-1.01A1.094,1.094,0,0,0,342.98,406h-4.94A1.077,1.077,0,0,0,337,407.089v4.94a1.011,1.011,0,0,0,1.041,1.012h1.1a1.049,1.049,0,1,0,0-2.1Z" transform="translate(-278.866 -323.388)"/><path class="a" d="M360.15,284.846l-3.071,3.071-.934-.934a1.049,1.049,0,0,0-1.483,1.483l1.676,1.676a1.049,1.049,0,0,0,1.483,0l3.813-3.813a1.049,1.049,0,1,0-1.483-1.483Z" transform="translate(-293.621 -220.122)"/><path class="a" d="M360.15,414.1l-3.071,3.071-.934-.934a1.049,1.049,0,0,0-1.483,1.483l1.676,1.676a1.049,1.049,0,0,0,1.483,0l3.813-3.813a1.049,1.049,0,1,0-1.483-1.483Z" transform="translate(-293.621 -330.009)"/><path class="a" d="M421.526,295H414.94a1.049,1.049,0,1,0,0,2.1h6.586a1.049,1.049,0,0,0,0-2.1Z" transform="translate(-344.239 -229.016)"/><path class="a" d="M421.526,359H414.94a1.049,1.049,0,1,0,0,2.1h6.586a1.049,1.049,0,0,0,0-2.1Z" transform="translate(-344.239 -283.429)"/><path class="a" d="M421.526,423H414.94a1.049,1.049,0,1,0,0,2.1h6.586a1.049,1.049,0,0,0,0-2.1Z" transform="translate(-344.239 -337.842)"/><path class="a" d="M9.524,76.279l28.11,16.229a1.049,1.049,0,0,0,1.049,0l16.351-9.44-1.023-1.816L39.259,89.784V59.744L65.174,44.726V53.7h2.1V42.912a1.028,1.028,0,0,0-.5-.908l-28.1-16.229a1.037,1.037,0,0,0-1.043,0L9.521,42A1.046,1.046,0,0,0,9,42.912V75.371a1.049,1.049,0,0,0,.524.908ZM11.1,44.726,37.162,59.744v30.04L11.1,74.765Zm14.828,6.139L51.936,35.848,64.17,42.911,38.159,57.928ZM38.159,27.893l11.68,6.744L23.828,49.654l-11.68-6.744Z"/><path class="a" d="M331,208.7h-3.731a3.675,3.675,0,0,0-3.508-2.7h-6.048a3.675,3.675,0,0,0-3.508,2.7h-3.731A4.5,4.5,0,0,0,306,213.218v30.274a4.44,4.44,0,0,0,4.478,4.452H331a4.465,4.465,0,0,0,4.507-4.452V213.218A4.524,4.524,0,0,0,331,208.7Zm-5.68,1.024a1.522,1.522,0,0,1-1.522,1.522h-6.093a1.522,1.522,0,0,1-1.522-1.522v-.1a1.522,1.522,0,0,1,1.522-1.522H323.8a1.522,1.522,0,0,1,1.522,1.522Zm8.089,33.771A2.366,2.366,0,0,1,331,245.846H310.477a2.341,2.341,0,0,1-2.38-2.355V213.218a2.4,2.4,0,0,1,2.38-2.424h3.772a3.587,3.587,0,0,0,3.467,2.547h6.048a3.586,3.586,0,0,0,3.467-2.547H331a2.425,2.425,0,0,1,2.409,2.424Z" transform="translate(-252.51 -153.348)"/></g></svg>